<svg width="48" height="48" viewBox="0 0 48 48" fill="none" xmlns="http://www.w3.org/2000/svg">
<g filter="url(#filter0_i_3241_877)">
<rect width="48" height="48" rx="12" fill="black"/>
<g filter="url(#filter1_d_3241_877)">
<path d="M26.5903 32.0391C24.204 31.1528 21.7495 31.0165 19.4996 31.6301C17.9314 32.0392 16.4314 32.8573 15.0678 33.88L14.1133 34.6982L13.8406 34.9709L14.4542 35.5164C14.5224 35.5164 14.5224 35.5846 14.5906 35.6527C14.7269 35.7891 14.8633 35.8573 15.0678 35.9936L15.4769 36.2664L15.886 35.9255C15.9542 35.8573 16.0905 35.7209 16.2269 35.6527C17.4541 34.63 18.8177 33.9482 20.2495 33.6073C22.0904 33.1301 24.0677 33.1982 26.0449 33.9482C27.6812 34.5618 31.0221 35.3118 35.0447 33.6073L35.1811 33.5391L35.3856 33.3346C35.3856 33.2664 35.4538 33.2664 35.522 33.1982C35.8629 32.7891 36.2038 32.3801 36.4765 31.9028L37.8402 29.7892L35.6584 31.0164C32.4539 32.7891 29.5221 33.13 26.5903 32.0391Z" fill="url(#paint0_linear_3241_877)"/>
<path d="M17.2499 24.6759C19.0907 24.1986 21.068 24.2668 23.0452 25.0168C25.227 25.8349 30.8178 26.994 37.0904 21.335L38.454 19.9714L38.3177 19.6305C38.2495 19.3578 38.1131 19.0169 37.9768 18.676L37.6359 17.7214L36.9541 18.4032C36.8859 18.5396 36.7495 18.6078 36.6132 18.7441C33.6132 21.8123 28.9769 24.9486 23.6588 23.0395C21.2725 22.1532 18.818 22.0168 16.5681 22.6304C14.3863 23.2441 12.4772 24.4031 10.7045 26.0395V25.9713L9.68181 27.0622C9.68181 27.1304 9.61364 27.1304 9.54546 27.1985L9.3409 27.4031L9.40909 27.6758C9.47727 28.0167 9.61363 28.3576 9.68181 28.6985L10.0909 29.7894L10.7727 28.9031C10.8409 28.7667 10.9772 28.6985 11.0454 28.5622C12.4772 27.2667 14.4545 25.4258 17.2499 24.6759Z" fill="url(#paint1_linear_3241_877)"/>
<path d="M10.6364 23.4484C12.2045 21.8121 13.9772 20.7894 15.8862 20.2439C17.7271 19.7667 19.7044 19.8349 21.6816 20.5848C27.8179 22.8348 33.136 19.1531 35.4541 17.1758L36.3404 16.2895L36.6813 16.0167L36.4086 15.6077C36.2041 15.4031 36.0677 15.1304 35.8632 14.8577L35.4541 14.3122L34.9768 14.7895C34.9086 14.8577 34.7723 14.994 34.7041 15.0622C31.8405 17.7894 27.4088 20.5849 22.3634 18.6758C19.9771 17.7895 17.5226 17.6531 15.2726 18.2667C13.8408 18.6758 12.4772 19.3576 11.1136 20.2439L9.68181 21.403C9.54545 21.5394 9.47726 21.6076 9.3409 21.7439L9.20455 21.8803V22.0848C9.13637 22.5621 9.13637 23.0394 9.06818 23.4484L9 25.153L10.1591 23.9257C10.2954 23.7893 10.4318 23.5848 10.6364 23.4484Z" fill="url(#paint2_linear_3241_877)"/>
<path d="M28.5681 36.6755C28.3636 36.6073 28.2272 36.5391 28.0227 36.471C25.6363 35.5846 23.1818 35.4483 20.9319 36.0619C20.4546 36.1982 19.9773 36.3346 19.5001 36.5391L17.8637 37.2891L17.4547 37.4937L18.8183 37.9709C19.2274 38.1073 19.6364 38.2437 20.0455 38.38L20.2501 38.4482L20.4546 38.38C20.6592 38.3118 20.8637 38.1755 21.0682 38.1755C21.2046 38.1755 21.341 38.1073 21.4773 38.0391C23.1137 37.63 24.8863 37.63 26.7954 38.2437C26.9999 38.3118 27.1363 38.38 27.3409 38.4482L27.6818 38.5846L27.8863 38.5164C28.3636 38.38 28.909 38.2437 29.3181 38.0391L31.2271 37.3573L29.2499 36.88C29.0454 36.8119 28.7726 36.7437 28.5681 36.6755Z" fill="url(#paint3_linear_3241_877)"/>
<path d="M39 22.5621L37.9773 23.5849C37.8409 23.7212 37.7046 23.8576 37.5682 23.9939C34.7728 26.653 30.2729 29.5166 25.2275 27.6075C22.8412 26.7212 20.3867 26.5848 18.1367 27.1984C16.0231 27.8121 14.1141 28.903 12.4096 30.5393L11.5232 31.4938L11.2505 31.8347L11.5232 32.2438C11.7278 32.5165 11.8641 32.7211 12.0005 32.9938L12.4096 33.6074L12.8868 32.9938C12.955 32.9256 13.0914 32.7892 13.1595 32.7211C14.7959 30.9484 16.5686 29.8575 18.614 29.312C20.4549 28.8348 22.4321 28.9029 24.4093 29.6529C26.1139 30.2666 27.8866 30.4711 29.6593 30.2666C32.7956 29.9257 35.9319 28.153 38.25 26.1757C38.3864 26.0394 38.5227 25.9712 38.6591 25.8348L38.8636 25.6303V25.4257C38.8636 25.0167 38.9318 24.5394 38.9318 24.1303L39 22.5621Z" fill="url(#paint4_linear_3241_877)"/>
<path d="M13.0903 16.2897C13.4994 16.0851 13.9767 15.9488 14.3857 15.8124C16.2266 15.3351 18.2039 15.4033 20.1811 16.1533C21.4765 16.6306 22.772 16.8351 24.2038 16.8351C27.0673 16.8351 29.9309 15.8124 32.59 13.8352L33.9536 12.7443L33.34 12.267C33.1354 12.0624 32.8627 11.8579 32.59 11.7216L32.1809 11.4488L31.84 11.7216C31.7036 11.7897 31.6354 11.9261 31.4991 11.9943C27.8855 14.7215 24.2719 15.4715 20.8629 14.1761C18.4084 13.2897 15.9539 13.0852 13.4994 13.8352C13.2948 13.9033 13.0903 13.9715 12.8176 14.0397L12.6812 14.1079L12.4767 14.3124C12.4767 14.3806 12.4085 14.3806 12.3403 14.4488C12.0676 14.8579 11.7267 15.1988 11.454 15.6079L10.1585 17.5851L12.2721 16.4942C12.613 16.4942 12.8858 16.3578 13.0903 16.2897Z" fill="url(#paint5_linear_3241_877)"/>
<path d="M18.6817 11.6533L18.8862 11.7214C19.7725 12.0624 21.1362 12.4033 22.8407 12.4033C24.6134 12.4033 26.3179 11.9942 28.0224 11.3124L30.136 10.2897L28.7042 9.8124C28.2951 9.67604 27.886 9.53968 27.4088 9.4715H27.2042L26.9997 9.53966C26.7952 9.60784 26.5906 9.74422 26.3861 9.8124C24.3406 10.5624 22.2952 10.6987 20.318 10.1533C20.1134 10.0851 19.9089 10.0169 19.7044 9.94875L19.4998 9.88056L19.2953 9.94875C18.8862 10.0851 18.4771 10.2215 18.068 10.426L16.4999 11.1078L18.1362 11.5851C18.2726 11.5169 18.4771 11.5851 18.6817 11.6533Z" fill="url(#paint6_linear_3241_877)"/>
</g>
</g>
<defs>
<filter id="filter0_i_3241_877" x="0" y="0" width="48" height="51" filterUnits="userSpaceOnUse" color-interpolation-filters="sRGB">
<feFlood flood-opacity="0" result="BackgroundImageFix"/>
<feBlend mode="normal" in="SourceGraphic" in2="BackgroundImageFix" result="shape"/>
<feColorMatrix in="SourceAlpha" type="matrix" values="0 0 0 0 0 0 0 0 0 0 0 0 0 0 0 0 0 0 127 0" result="hardAlpha"/>
<feOffset dy="3"/>
<feGaussianBlur stdDeviation="1.5"/>
<feComposite in2="hardAlpha" operator="arithmetic" k2="-1" k3="1"/>
<feColorMatrix type="matrix" values="0 0 0 0 1 0 0 0 0 1 0 0 0 0 1 0 0 0 0.1 0"/>
<feBlend mode="normal" in2="shape" result="effect1_innerShadow_3241_877"/>
</filter>
<filter id="filter1_d_3241_877" x="6" y="5.25" width="36" height="42" filterUnits="userSpaceOnUse" color-interpolation-filters="sRGB">
<feFlood flood-opacity="0" result="BackgroundImageFix"/>
<feColorMatrix in="SourceAlpha" type="matrix" values="0 0 0 0 0 0 0 0 0 0 0 0 0 0 0 0 0 0 127 0" result="hardAlpha"/>
<feMorphology radius="1.5" operator="erode" in="SourceAlpha" result="effect1_dropShadow_3241_877"/>
<feOffset dy="2.25"/>
<feGaussianBlur stdDeviation="2.25"/>
<feComposite in2="hardAlpha" operator="out"/>
<feColorMatrix type="matrix" values="0 0 0 0 0.141176 0 0 0 0 0.141176 0 0 0 0 0.141176 0 0 0 0.1 0"/>
<feBlend mode="normal" in2="BackgroundImageFix" result="effect1_dropShadow_3241_877"/>
<feBlend mode="normal" in="SourceGraphic" in2="effect1_dropShadow_3241_877" result="shape"/>
</filter>
<linearGradient id="paint0_linear_3241_877" x1="24" y1="9.4715" x2="24" y2="38.5846" gradientUnits="userSpaceOnUse">
<stop stop-color="white" stop-opacity="0.8"/>
<stop offset="1" stop-color="white" stop-opacity="0.5"/>
</linearGradient>
<linearGradient id="paint1_linear_3241_877" x1="24" y1="9.4715" x2="24" y2="38.5846" gradientUnits="userSpaceOnUse">
<stop stop-color="white" stop-opacity="0.8"/>
<stop offset="1" stop-color="white" stop-opacity="0.5"/>
</linearGradient>
<linearGradient id="paint2_linear_3241_877" x1="24" y1="9.4715" x2="24" y2="38.5846" gradientUnits="userSpaceOnUse">
<stop stop-color="white" stop-opacity="0.8"/>
<stop offset="1" stop-color="white" stop-opacity="0.5"/>
</linearGradient>
<linearGradient id="paint3_linear_3241_877" x1="24" y1="9.4715" x2="24" y2="38.5846" gradientUnits="userSpaceOnUse">
<stop stop-color="white" stop-opacity="0.8"/>
<stop offset="1" stop-color="white" stop-opacity="0.5"/>
</linearGradient>
<linearGradient id="paint4_linear_3241_877" x1="24" y1="9.4715" x2="24" y2="38.5846" gradientUnits="userSpaceOnUse">
<stop stop-color="white" stop-opacity="0.8"/>
<stop offset="1" stop-color="white" stop-opacity="0.5"/>
</linearGradient>
<linearGradient id="paint5_linear_3241_877" x1="24" y1="9.4715" x2="24" y2="38.5846" gradientUnits="userSpaceOnUse">
<stop stop-color="white" stop-opacity="0.8"/>
<stop offset="1" stop-color="white" stop-opacity="0.5"/>
</linearGradient>
<linearGradient id="paint6_linear_3241_877" x1="24" y1="9.4715" x2="24" y2="38.5846" gradientUnits="userSpaceOnUse">
<stop stop-color="white" stop-opacity="0.8"/>
<stop offset="1" stop-color="white" stop-opacity="0.5"/>
</linearGradient>
</defs>
</svg>
