<svg width="166" height="166" viewBox="0 0 166 166" fill="none" xmlns="http://www.w3.org/2000/svg">
<path d="M97.3333 127.578C84.1289 122.646 70.5474 121.887 58.0976 125.302C49.4205 127.578 41.1206 132.131 33.5753 137.822L28.2935 142.374L26.7844 143.892L30.1798 146.927C30.5571 146.927 30.5571 147.306 30.9344 147.686C31.6889 148.445 32.4435 148.824 33.5753 149.583L35.8388 151.1L38.1024 149.203C38.4797 148.824 39.2342 148.065 39.9888 147.686C46.7795 141.995 54.3248 138.201 62.2474 136.304C72.4336 133.648 83.3743 134.028 94.3151 138.201C103.369 141.616 121.856 145.789 144.114 136.304L144.869 135.925L146.001 134.787C146.001 134.407 146.378 134.407 146.755 134.028C148.641 131.751 150.528 129.475 152.037 126.819L159.582 115.058L147.51 121.887C129.778 131.751 113.556 133.648 97.3333 127.578Z" fill="#155EEF"/>
<path d="M45.6492 86.6048C55.8354 83.9491 66.7761 84.3285 77.7169 88.5018C89.7894 93.0545 120.725 99.5042 155.434 68.0147L162.979 60.4268L162.224 58.5299C161.847 57.0123 161.093 55.1154 160.338 53.2184L158.452 47.9068L154.679 51.7007C154.302 52.4595 153.547 52.8389 152.793 53.5977C136.193 70.6703 110.539 88.1224 81.1122 77.4995C67.9079 72.5674 54.3264 71.8086 41.8766 75.2231C29.8041 78.6376 19.2406 85.0873 9.43166 94.1927V93.8133L3.77267 99.8836C3.77267 100.263 3.39547 100.263 3.0182 100.642L1.88633 101.781L2.26362 103.298C2.64089 105.195 3.3954 107.092 3.77267 108.989L6.03629 115.059L9.80895 110.127C10.1862 109.368 10.9407 108.989 11.318 108.23C19.2406 101.022 30.1813 90.7782 45.6492 86.6048Z" fill="#155EEF"/>
<path d="M9.05448 79.7749C17.7316 70.6695 27.5405 64.9786 38.1039 61.9434C48.2901 59.2877 59.2308 59.6671 70.1715 63.8404C104.126 76.3603 133.552 55.8732 146.379 44.8708L151.284 39.9387L153.17 38.4211L151.661 36.1448C150.529 35.0066 149.775 33.4891 148.643 31.9715L146.379 28.9363L143.738 31.5921C143.361 31.9715 142.607 32.7302 142.229 33.1096C126.384 48.2853 101.862 63.8404 73.9442 53.2175C60.7399 48.2854 47.1583 47.5266 34.7085 50.9411C26.7859 53.2174 19.2406 57.0113 11.6953 61.9434L3.77266 68.3931C3.01813 69.1519 2.64086 69.5313 1.88633 70.2901L1.13187 71.0488V72.1871C0.754602 74.8428 0.754556 77.4985 0.377289 79.7749L0 89.2597L6.41357 82.4306C7.1681 81.6718 7.92268 80.5337 9.05448 79.7749Z" fill="#155EEF"/>
<path d="M108.277 153.377C107.145 152.998 106.391 152.618 105.259 152.239C92.0544 147.307 78.4728 146.548 66.023 149.963C63.3821 150.721 60.7413 151.48 58.1005 152.618L49.046 156.792L46.7825 157.93L54.3278 160.585C56.5914 161.344 58.855 162.103 61.1186 162.862L62.2503 163.241L63.3822 162.862C64.514 162.482 65.6458 161.724 66.7776 161.724C67.5321 161.724 68.2866 161.344 69.0412 160.965C78.0956 158.689 87.9044 158.689 98.4679 162.103C99.5997 162.482 100.354 162.862 101.486 163.241L103.372 164L104.504 163.621C107.145 162.862 110.163 162.103 112.427 160.965L122.99 157.171L112.05 154.515C110.918 154.136 109.409 153.756 108.277 153.377Z" fill="#155EEF"/>
<path d="M166 74.8431L160.341 80.534C159.586 81.2927 158.832 82.0515 158.078 82.8103C142.61 97.6066 117.71 113.541 89.7923 102.918C76.588 97.986 63.0064 97.2273 50.5566 100.642C38.8614 104.056 28.2978 110.127 18.8662 119.232L13.9618 124.543L12.4527 126.44L13.9618 128.717C15.0936 130.234 15.8482 131.373 16.6027 132.89L18.8662 136.305L21.5071 132.89C21.8844 132.511 22.6389 131.752 23.0161 131.372C32.0705 121.508 41.8795 115.438 53.1974 112.403C63.3836 109.747 74.3243 110.127 85.2651 114.3C94.6967 117.714 104.506 118.853 114.315 117.714C131.669 115.817 149.023 105.953 161.85 94.9509C162.605 94.1921 163.359 93.8127 164.114 93.054L165.246 91.9157V90.7776C165.246 88.5012 165.623 85.8455 165.623 83.5692L166 74.8431Z" fill="#155EEF"/>
<path d="M22.633 39.9398C24.8966 38.8016 27.5375 38.0428 29.8011 37.284C39.9873 34.6282 50.928 35.0076 61.8688 39.181C69.0368 41.8367 76.2049 42.9749 84.1275 42.9749C99.9726 42.9749 115.818 37.284 130.531 26.2816L138.076 20.2114L134.681 17.5556C133.549 16.4174 132.04 15.2793 130.531 14.5205L128.268 13.0029L126.381 14.5205C125.627 14.8999 125.249 15.6586 124.495 16.038C104.5 31.2137 84.5047 35.3871 65.6414 28.1786C52.0598 23.2465 38.4782 22.1083 24.8966 26.2816C23.7648 26.661 22.633 27.0404 21.1239 27.4198L20.3695 27.7992L19.2376 28.9373C19.2376 29.3167 18.8604 29.3168 18.4831 29.6962C16.9741 31.9725 15.0877 33.8695 13.5786 36.1459L6.41058 47.1482L18.1059 41.0779C19.9922 41.0779 21.5012 40.3192 22.633 39.9398Z" fill="#155EEF"/>
<path d="M53.5719 14.1405L54.7036 14.5199C59.6081 16.4168 67.1535 18.3138 76.5851 18.3138C86.394 18.3138 95.8257 16.0374 105.257 12.2435L116.953 6.55263L109.03 3.89696C106.766 3.13818 104.503 2.37939 101.862 2H100.73L99.5984 2.3793C98.4666 2.75869 97.3347 3.51757 96.2029 3.89696C84.8849 8.07027 73.5669 8.82906 62.6262 5.79392C61.4944 5.41453 60.3627 5.03507 59.2309 4.65567L58.0991 4.27626L56.9672 4.65567C54.7036 5.41446 52.4401 6.17329 50.1765 7.31146L41.4993 11.1054L50.5538 13.7611C51.3083 13.3817 52.4401 13.7611 53.5719 14.1405Z" fill="#155EEF"/>
</svg>
